<svg xmlns="http://www.w3.org/2000/svg" xmlns:xlink="http://www.w3.org/1999/xlink" version="1.1" x="0px" y="0px" viewBox="0 0 32 32" preserveAspectRatio="xMidYMid meet" xml:space="preserve">
<path style="fill:#FF3D00;" d="M16,2.7C8.6,2.7,2.7,8.6,2.7,16s6,13.3,13.3,13.3s13.3-6,13.3-13.3S23.4,2.7,16,2.7z"/>
<path style="fill:#FFFFFF;" d="M16,5.3C10.1,5.3,5.3,10.1,5.3,16S10.1,26.7,16,26.7S26.7,21.9,26.7,16S21.9,5.3,16,5.3z M16,24  c-4.4,0-8-3.6-8-8s3.6-8,8-8s8,3.6,8,8S20.4,24,16,24z M16,10.7c-3,0-5.3,2.4-5.3,5.3s2.4,5.3,5.3,5.3s5.3-2.4,5.3-5.3  S19,10.7,16,10.7z M16,18.7c-1.5,0-2.7-1.2-2.7-2.7s1.2-2.7,2.7-2.7s2.7,1.2,2.7,2.7S17.5,18.7,16,18.7z"/>
<path style="fill:#1976D2;" d="M28.7,6c0,0-0.4,1.5-1.5,2.5c-1.1,1.1-5.3,1.6-5.3,1.6s0.5-4.3,1.6-5.3c1-1.1,2.5-1.5,2.5-1.5V6H28.7  z"/>
<path style="fill:#37474F;" d="M28.5,3.5c-0.3-0.3-0.7-0.3-0.9,0l-12,12c-0.3,0.3-0.3,0.7,0,0.9c0.1,0.1,0.3,0.2,0.5,0.2  c0.1,0,0.3-0.1,0.5-0.2l12-12C28.7,4.2,28.7,3.8,28.5,3.5z"/>
<path style="fill:#42A5F5;" d="M26,5.2l0.9,0.9L23,10l-0.9-0.9L26,5.2z"/>
<script xmlns=""/></svg>